<svg width="47" height="51" viewBox="0 0 47 51" fill="none" xmlns="http://www.w3.org/2000/svg">
<g id="Group">
<path id="Vector" fill-rule="evenodd" clip-rule="evenodd" d="M26.8018 38.455L25.5691 8.92729L14.8304 0L7.1543 12.7372L19.1073 39.5196L26.8018 38.455Z" fill="#DEDCDC"/>
<path id="Vector_2" fill-rule="evenodd" clip-rule="evenodd" d="M15.166 1.19531L20.489 9.89863C20.489 9.89863 22.8796 24.3355 22.3378 24.5969C21.815 24.8583 19.7417 24.9142 19.7417 24.9142L16.4731 10.5706L15.166 1.19531Z" fill="white"/>
<path id="Vector_3" fill-rule="evenodd" clip-rule="evenodd" d="M0 35.4853L1.56895 20.0771L15.7633 25.7363L25.4749 48.3347L20.7685 50.2214L0 35.4853Z" fill="#5E6468"/>
<path id="Vector_4" fill-rule="evenodd" clip-rule="evenodd" d="M4.33293 33.8976L2.72656 22.0005L10.9445 30.8719L24.41 48.073L4.33293 33.8976Z" fill="#DEDCDC"/>
<path id="Vector_5" fill-rule="evenodd" clip-rule="evenodd" d="M28.3326 22.2063L43.0682 12.9243L46.3184 29.1356L30.1255 49.8852L25.9609 48.5966L28.3326 22.2063Z" fill="#7B7B7B"/>
<path id="Vector_6" fill-rule="evenodd" clip-rule="evenodd" d="M31.6943 27.6223C31.601 26.9314 42.2091 15.0532 42.2091 15.0532C42.2091 15.0532 30.3309 22.1128 30.6672 21.8139C30.9845 21.5151 31.6943 27.6223 31.6943 27.6223Z" fill="white"/>
<path id="Vector_7" fill-rule="evenodd" clip-rule="evenodd" d="M26.5956 49.9969L20.0774 48.9887L19.0312 23.1028L30.2933 12.6255L37.5583 26.4831L26.5956 49.9969Z" fill="#898989"/>
<path id="Vector_8" fill-rule="evenodd" clip-rule="evenodd" d="M25.457 47.6062L27.6421 26.1472L29.9394 14.9785L31.5268 26.5394L25.457 47.6062Z" fill="#DEDCDC"/>
<path id="Vector_9" fill-rule="evenodd" clip-rule="evenodd" d="M22.6172 8.77832C22.6546 11.0756 22.7105 15.8568 24.3728 18.5088C25.1201 19.7041 26.4645 20.171 27.8464 20.2833C26.3897 20.414 24.8023 21.2546 24.0365 22.5616C22.4676 25.2326 22.6546 29.5653 22.6172 31.8067C22.5613 28.9681 22.7479 24.9338 21.366 22.5432C20.4137 20.9368 18.5459 20.3766 16.2676 20.2833C18.3593 20.2084 20.1897 19.8537 21.1236 18.4529C22.7295 16.0618 22.5613 11.7666 22.6172 8.77832Z" fill="#DEDCDC"/>
<path id="Vector_10" fill-rule="evenodd" clip-rule="evenodd" d="M33.3748 31.7129C33.4122 33.6365 33.4496 37.6145 34.8315 39.837C35.4666 40.8268 36.5686 41.2004 37.7265 41.3127C36.5127 41.4249 35.1862 42.1159 34.5516 43.1989C33.2441 45.4214 33.4122 49.0257 33.3748 50.8935C33.3189 48.5403 33.487 45.1784 32.3287 43.18C31.5444 41.854 29.9755 41.387 28.0703 41.3122C29.8258 41.2373 31.3389 40.9385 32.1231 39.7807C33.4496 37.7827 33.3189 34.1968 33.3748 31.7129Z" fill="#DEDCDC"/>
</g>
</svg>
